<mxfile host="app.diagrams.net" modified="2024-06-03T14:35:21.653Z" agent="Mozilla/5.0 (Windows NT 10.0; Win64; x64) AppleWebKit/537.36 (KHTML, like Gecko) Chrome/124.0.0.0 Safari/537.36" etag="K6Jif_u_ZwQ7IOh_cEYd" version="24.4.2" type="device">
  <diagram name="Page-1" id="v1zQrNXWDf2rzzqmDZg3">
    <mxGraphModel dx="794" dy="434" grid="1" gridSize="10" guides="1" tooltips="1" connect="1" arrows="1" fold="1" page="1" pageScale="1" pageWidth="850" pageHeight="1100" math="0" shadow="0">
      <root>
        <mxCell id="0" />
        <mxCell id="1" parent="0" />
        <mxCell id="-aMKlmWGwsQnbMnRkvw8-6" style="edgeStyle=orthogonalEdgeStyle;rounded=0;orthogonalLoop=1;jettySize=auto;html=1;exitX=1;exitY=0.5;exitDx=0;exitDy=0;entryX=0;entryY=0.25;entryDx=0;entryDy=0;" edge="1" parent="1" source="-aMKlmWGwsQnbMnRkvw8-1" target="-aMKlmWGwsQnbMnRkvw8-10">
          <mxGeometry relative="1" as="geometry" />
        </mxCell>
        <mxCell id="-aMKlmWGwsQnbMnRkvw8-1" value="Frontend" style="rounded=0;whiteSpace=wrap;html=1;" vertex="1" parent="1">
          <mxGeometry x="140" y="140" width="120" height="120" as="geometry" />
        </mxCell>
        <mxCell id="-aMKlmWGwsQnbMnRkvw8-7" style="edgeStyle=orthogonalEdgeStyle;rounded=0;orthogonalLoop=1;jettySize=auto;html=1;exitX=0;exitY=0.75;exitDx=0;exitDy=0;entryX=1;entryY=0.75;entryDx=0;entryDy=0;" edge="1" parent="1" source="-aMKlmWGwsQnbMnRkvw8-10" target="-aMKlmWGwsQnbMnRkvw8-1">
          <mxGeometry relative="1" as="geometry">
            <Array as="points">
              <mxPoint x="560" y="325" />
              <mxPoint x="350" y="325" />
              <mxPoint x="350" y="230" />
            </Array>
          </mxGeometry>
        </mxCell>
        <mxCell id="-aMKlmWGwsQnbMnRkvw8-3" value="Web browser&lt;br&gt;Postman&lt;br&gt;Mobile app" style="text;html=1;align=center;verticalAlign=middle;whiteSpace=wrap;rounded=0;" vertex="1" parent="1">
          <mxGeometry x="155" y="300" width="90" height="30" as="geometry" />
        </mxCell>
        <mxCell id="-aMKlmWGwsQnbMnRkvw8-4" value="Web Clients" style="text;html=1;align=center;verticalAlign=middle;whiteSpace=wrap;rounded=0;fontStyle=1;fontColor=#FF0000;" vertex="1" parent="1">
          <mxGeometry x="155" y="270" width="75" height="30" as="geometry" />
        </mxCell>
        <mxCell id="-aMKlmWGwsQnbMnRkvw8-8" value="Request" style="text;html=1;align=center;verticalAlign=middle;whiteSpace=wrap;rounded=0;" vertex="1" parent="1">
          <mxGeometry x="360" y="170" width="60" height="30" as="geometry" />
        </mxCell>
        <mxCell id="-aMKlmWGwsQnbMnRkvw8-9" value="Response" style="text;html=1;align=center;verticalAlign=middle;whiteSpace=wrap;rounded=0;" vertex="1" parent="1">
          <mxGeometry x="340" y="330" width="60" height="30" as="geometry" />
        </mxCell>
        <mxCell id="-aMKlmWGwsQnbMnRkvw8-18" style="edgeStyle=orthogonalEdgeStyle;rounded=0;orthogonalLoop=1;jettySize=auto;html=1;exitX=1;exitY=0.5;exitDx=0;exitDy=0;entryX=0.25;entryY=0;entryDx=0;entryDy=0;" edge="1" parent="1" source="-aMKlmWGwsQnbMnRkvw8-10" target="-aMKlmWGwsQnbMnRkvw8-17">
          <mxGeometry relative="1" as="geometry" />
        </mxCell>
        <mxCell id="-aMKlmWGwsQnbMnRkvw8-10" value="Web server" style="rounded=0;whiteSpace=wrap;html=1;" vertex="1" parent="1">
          <mxGeometry x="560" y="270" width="70" height="60" as="geometry" />
        </mxCell>
        <mxCell id="-aMKlmWGwsQnbMnRkvw8-23" style="edgeStyle=orthogonalEdgeStyle;rounded=0;orthogonalLoop=1;jettySize=auto;html=1;exitX=0.75;exitY=1;exitDx=0;exitDy=0;entryX=1;entryY=0.75;entryDx=0;entryDy=0;" edge="1" parent="1" source="-aMKlmWGwsQnbMnRkvw8-11" target="-aMKlmWGwsQnbMnRkvw8-17">
          <mxGeometry relative="1" as="geometry" />
        </mxCell>
        <mxCell id="-aMKlmWGwsQnbMnRkvw8-11" value="Routes" style="rounded=0;whiteSpace=wrap;html=1;" vertex="1" parent="1">
          <mxGeometry x="720" y="270" width="70" height="60" as="geometry" />
        </mxCell>
        <mxCell id="-aMKlmWGwsQnbMnRkvw8-19" style="edgeStyle=orthogonalEdgeStyle;rounded=0;orthogonalLoop=1;jettySize=auto;html=1;exitX=1;exitY=0.25;exitDx=0;exitDy=0;entryX=0.25;entryY=1;entryDx=0;entryDy=0;" edge="1" parent="1" source="-aMKlmWGwsQnbMnRkvw8-17" target="-aMKlmWGwsQnbMnRkvw8-11">
          <mxGeometry relative="1" as="geometry" />
        </mxCell>
        <mxCell id="-aMKlmWGwsQnbMnRkvw8-25" style="edgeStyle=orthogonalEdgeStyle;rounded=0;orthogonalLoop=1;jettySize=auto;html=1;exitX=0;exitY=0.75;exitDx=0;exitDy=0;entryX=0.25;entryY=1;entryDx=0;entryDy=0;" edge="1" parent="1" source="-aMKlmWGwsQnbMnRkvw8-17" target="-aMKlmWGwsQnbMnRkvw8-10">
          <mxGeometry relative="1" as="geometry">
            <mxPoint x="580" y="410" as="targetPoint" />
          </mxGeometry>
        </mxCell>
        <mxCell id="-aMKlmWGwsQnbMnRkvw8-17" value="Middleware" style="whiteSpace=wrap;html=1;aspect=fixed;" vertex="1" parent="1">
          <mxGeometry x="620" y="390" width="80" height="80" as="geometry" />
        </mxCell>
      </root>
    </mxGraphModel>
  </diagram>
</mxfile>
